#!OML:ASF I:\Random Stuff\random\construction\7_22_03\Session 2\subj1.ASF
:FULLY-SPECIFIED
:DEGREES
617
root -8.94475 17.6368 -5.70334 -375.026 83.1408 -389.903
lowerback 12.5436 1.1278 -3.23102
upperback 3.65146 1.15497 -2.26993
thorax -3.21102 0.648396 -0.723315
lowerneck -8.01084 4.69068 3.69964
upperneck 27.7499 9.10501 -7.74722
head 10.7531 3.98083 -2.29678
rclavicle 1.74931e-014 0
rhumerus -37.0276 35.3435 -98.8386
rradius 79.2741
rwrist -15.8767
rhand -45.1993 33.3962
rfingers 7.12502
rthumb -17.9754 4.20686
lclavicle 1.74931e-014 0
lhumerus -3.17265 -35.9306 81.6695
lradius 40.6879
lwrist -10.2072
lhand -29.702 63.019
lfingers 7.12502
lthumb -3.02964 627.023
rfemur -16.7415 8.21671 13.6403
rtibia 12.6098
rfoot -7.42412 -10.7885
rtoes -25.9835
lfemur -26.5409 -4.30971 -10.1221
ltibia 27.8732
lfoot -16.7839 7.22083
ltoes -29.1974
618
root -8.9482 17.6371 -5.70621 -375.76 83.1478 -390.698
lowerback 12.5586 1.05657 -3.1259
upperback 3.65685 1.07482 -2.20724
thorax -3.21231 0.60793 -0.70499
lowerneck -8.05051 4.74381 3.70606
upperneck 27.8404 9.18265 -7.71687
head 10.7996 4.01672 -2.27673
rclavicle 1.19271e-014 1.74931e-014
rhumerus -36.9916 35.4322 -98.8034
rradius 79.4627
rwrist -15.3208
rhand -46.1599 34.9842
rfingers 7.12502
rthumb -18.8995 5.88232
lclavicle 1.19271e-014 1.74931e-014
lhumerus -3.24292 -35.911 81.6431
lradius 40.7054
lwrist -9.79252
lhand -29.7159 63.2405
lfingers 7.12502
lthumb -3.04314 626.802
rfemur -16.7462 8.32038 13.6956
rtibia 12.4814
rfoot -7.31426 -10.9052
rtoes -25.8845
lfemur -26.6598 -4.39161 -10.0064
ltibia 27.9072
lfoot -16.7446 7.27061
ltoes -28.9883
619
root -8.9514 17.6382 -5.71006 -375.799 83.0875 -390.812
lowerback 12.5511 1.04718 -3.03512
upperback 3.62449 1.07092 -2.2119
thorax -3.24063 0.605451 -0.760584
lowerneck -7.97721 4.74644 3.80337
upperneck 27.8718 9.17376 -7.71156
head 10.8003 4.02521 -2.2948
rclavicle -1.66979e-014 -3.26007e-014
rhumerus -36.7858 35.5782 -98.8072
rradius 78.9576
rwrist -14.8003
rhand -47.0442 36.1232
rfingers 7.12502
rthumb -19.7498 7.10652
lclavicle -1.66979e-014 -3.26007e-014
lhumerus -3.32986 -35.7085 81.6846
lradius 40.7316
lwrist -9.97389
lhand -29.7152 63.123
lfingers 7.12502
lthumb -3.04244 626.919
rfemur -16.7936 8.42011 13.694
rtibia 12.3544
rfoot -7.22394 -10.9341
rtoes -25.9883
lfemur -26.7786 -4.38758 -9.95955
ltibia 27.9467
lfoot -16.6961 7.35129
ltoes -29.0723
620
root -8.95385 17.6395 -5.71516 -375.153 83.0046 -390.216
lowerback 12.5726 1.08365 -2.97568
upperback 3.57852 1.12034 -2.26685
thorax -3.29886 0.629988 -0.86009
lowerneck -7.85433 4.71332 3.89787
upperneck 27.8331 9.09445 -7.67185
head 10.7574 4.00774 -2.30977
rclavicle 7.95139e-015 2.38542e-014
rhumerus -36.4542 35.7601 -98.7904
rradius 77.7893
rwrist -13.9433
rhand -48.0446 36.5536
rfingers 7.12502
rthumb -20.7113 7.63874
lclavicle 7.95139e-015 2.38542e-014
lhumerus -3.40853 -35.7318 81.6855
lradius 40.8366
lwrist -9.96048
lhand -29.641 63.0846
lfingers 7.12502
lthumb -2.97076 626.956
rfemur -16.8087 8.47291 13.6215
rtibia 12.2012
rfoot -7.15676 -10.8928
rtoes -26.0814
lfemur -26.8543 -4.36851 -10.0023
ltibia 28.0099
lfoot -16.7377 7.43258
ltoes -29.1492
621
root -8.95677 17.6404 -5.72191 -374.679 82.882 -389.773
lowerback 12.6367 1.12022 -2.87465
upperback 3.53522 1.17366 -2.31352
thorax -3.37679 0.656357 -0.976036
lowerneck -7.81507 4.66751 3.89602
upperneck 27.8498 8.99237 -7.53931
head 10.7409 3.97622 -2.27568
rclavicle 8.74653e-015 3.33958e-014
rhumerus -35.9767 36.0145 -98.7219
rradius 76.0059
rwrist -12.8155
rhand -49.0998 35.9453
rfingers 7.12502
rthumb -21.7248 7.14442
lclavicle 8.74653e-015 3.33958e-014
lhumerus -3.46966 -35.7896 81.6663
lradius 40.9405
lwrist -9.8899
lhand -29.5681 63.0428
lfingers 7.12502
lthumb -2.9004 626.997
rfemur -16.8161 8.52575 13.5861
rtibia 12.0645
rfoot -7.09347 -10.811
rtoes -26.0797
lfemur -26.8848 -4.33072 -10.0172
ltibia 28.0571
lfoot -16.7765 7.53122
ltoes -29.2949
622
root -8.96295 17.6428 -5.71728 -373.011 82.1666 -388.297
lowerback 12.4397 1.35492 -3.05725
upperback 3.45398 1.46139 -2.2995
thorax -3.36017 0.796842 -0.899055
lowerneck -7.87997 4.62736 3.81312
upperneck 27.9644 8.92639 -7.4119
head 10.7817 3.94781 -2.22277
rclavicle 1.19271e-014 -1.43125e-014
rhumerus -35.21 36.2091 -98.475
rradius 73.6541
rwrist -11.8497
rhand -49.0999 33.7932
rfingers 7.12502
rthumb -21.7249 4.99228
lclavicle 1.19271e-014 -1.43125e-014
lhumerus -3.55907 -35.4419 81.7038
lradius 41.0791
lwrist -10.3324
lhand -29.6105 62.7501
lfingers 7.12502
lthumb -2.94134 627.29
rfemur -17.1922 8.91482 13.6135
rtibia 11.9558
rfoot -6.94782 -10.4437
rtoes -26.4899
lfemur -26.9061 -3.77374 -9.93353
ltibia 28.0741
lfoot -16.8444 7.7479
ltoes -29.8046
623
root -8.96196 17.6423 -5.72086 -372.263 82.0794 -387.497
lowerback 12.4586 1.36662 -3.10649
upperback 3.46793 1.47053 -2.31847
thorax -3.35654 0.801874 -0.89289
lowerneck -8.02963 4.57491 3.77837
upperneck 28.2207 8.86797 -7.32976
head 10.8985 3.91955 -2.19176
rclavicle -4.77083e-015 2.78299e-014
rhumerus -34.1539 35.9664 -97.9107
rradius 70.995
rwrist -10.9044
rhand -47.0966 29.7402
rfingers 7.12502
rthumb -19.8002 0.728719
lclavicle -4.77083e-015 2.78299e-014
lhumerus -3.7124 -34.8808 81.8291
lradius 41.2494
lwrist -10.8546
lhand -30.0886 62.3854
lfingers 7.12502
lthumb -3.40297 627.662
rfemur -17.1118 9.0411 13.5169
rtibia 11.8763
rfoot -6.90258 -10.4538
rtoes -26.6551
lfemur -26.7931 -3.7523 -10.0154
ltibia 28.0463
lfoot -16.8753 7.82072
ltoes -30.2073
624
root -8.95961 17.6425 -5.72123 -371.149 81.9906 -386.331
lowerback 12.4505 1.39793 -3.25664
upperback 3.43754 1.49108 -2.33814
thorax -3.38691 0.81275 -0.832633
lowerneck -8.12788 4.51632 3.8686
upperneck 28.5659 8.83491 -7.37433
head 11.054 3.90473 -2.22667
rclavicle 1.11319e-014 -1.27222e-014
rhumerus -33.0623 35.4451 -97.185
rradius 68.3076
rwrist -9.98021
rhand -43.7251 25.0747
rfingers 7.12502
rthumb -16.5566 -4.23898
lclavicle 1.11319e-014 -1.27222e-014
lhumerus -3.99912 -34.1957 82.1669
lradius 41.2237
lwrist -10.932
lhand -30.9279 61.9739
lfingers 7.12502
lthumb -4.21354 628.088
rfemur -17.0712 9.16918 13.3699
rtibia 11.8617
rfoot -6.92601 -10.4737
rtoes -26.6216
lfemur -26.6479 -3.76925 -10.1415
ltibia 27.9705
lfoot -16.9013 7.93639
ltoes -30.0975
625
root -8.95686 17.644 -5.72017 -369.931 81.8545 -385.146
lowerback 12.3714 1.3706 -3.54651
upperback 3.33127 1.41676 -2.26791
thorax -3.46226 0.776327 -0.585053
lowerneck -8.07154 4.50814 3.9833
upperneck 28.7847 8.9258 -7.64456
head 11.1534 3.93089 -2.33605
rclavicle -7.95139e-016 -8.74653e-015
rhumerus -31.9448 35.1796 -96.4238
rradius 65.9828
rwrist -10.1212
rhand -39.3175 20.5264
rfingers 7.12502
rthumb -12.3098 -9.09123
lclavicle -7.95139e-016 -8.74653e-015
lhumerus -4.40777 -33.0864 82.6625
lradius 41.0394
lwrist -11.3328
lhand -31.2059 61.5788
lfingers 7.12502
lthumb -4.48197 628.489
rfemur -17.204 9.1939 13.2448
rtibia 11.955
rfoot -6.97829 -10.393
rtoes -26.8695
lfemur -26.5531 -3.72066 -10.2625
ltibia 27.8255
lfoot -16.891 8.07649
ltoes -30.4951
626
root -8.95261 17.6455 -5.72056 -368.467 81.7509 -383.76
lowerback 12.2645 1.32652 -3.85
upperback 3.1981 1.31762 -2.23324
thorax -3.54849 0.728492 -0.363029
lowerneck -8.03114 4.50329 4.1266
upperneck 28.9101 8.97679 -7.84913
head 11.2154 3.9481 -2.43108
rclavicle 1.74931e-014 -6.36111e-015
rhumerus -31.1464 35.5794 -96.0392
rradius 64.1308
rwrist -11.2047
rhand -36.5604 16.3168
rfingers 7.12502
rthumb -9.65056 -13.4421
lclavicle 1.74931e-014 -6.36111e-015
lhumerus -4.77063 -32.1731 83.0348
lradius 40.8838
lwrist -11.9514
lhand -31.3278 61.4914
lfingers 7.12502
lthumb -4.59967 628.579
rfemur -17.3882 9.18699 13.06
rtibia 12.0618
rfoot -7.04157 -10.3153
rtoes -27.0794
lfemur -26.5009 -3.6922 -10.4341
ltibia 27.6662
lfoot -16.8422 8.22202
ltoes -30.9513
627
root -8.94831 17.6459 -5.72142 -367.174 81.7262 -382.503
lowerback 12.2025 1.30227 -4.0886
upperback 3.11152 1.25294 -2.25756
thorax -3.60763 0.698425 -0.244708
lowerneck -8.14271 4.48605 4.22374
upperneck 29.0859 8.91916 -7.73991
head 11.3001 3.938 -2.41389
rclavicle -1.19271e-014 1.59028e-015
rhumerus -31.2471 36.6067 -96.2028
rradius 62.5169
rwrist -10.4904
rhand -39.2659 24.4414
rfingers 7.12502
rthumb -12.26 -5.17927
lclavicle -1.19271e-014 1.59028e-015
lhumerus -4.92164 -31.7097 83.2129
lradius 40.6726
lwrist -12.2515
lhand -31.2775 61.2508
lfingers 7.12502
lthumb -4.55107 628.818
rfemur -17.4759 9.21259 12.8597
rtibia 12.1319
rfoot -7.12031 -10.307
rtoes -27.1162
lfemur -26.4231 -3.84151 -10.588
ltibia 27.5178
lfoot -16.7852 8.39659
ltoes -30.4125
628
root -8.94457 17.6472 -5.7217 -366.627 81.7401 -381.969
lowerback 12.1274 1.28267 -4.2729
upperback 3.09821 1.20911 -2.2183
thorax -3.58337 0.677325 -0.0921399
lowerneck -8.32846 4.47184 4.12107
upperneck 29.2167 8.81985 -7.40269
head 11.3579 3.90968 -2.28155
rclavicle -1.43125e-014 -1.90833e-014
rhumerus -32.159 37.5761 -96.563
rradius 63.6003
rwrist -9.48051
rhand -40.2163 22.6838
rfingers 7.12502
rthumb -13.1763 -6.8798
lclavicle -1.43125e-014 -1.90833e-014
lhumerus -4.8335 -31.3962 83.3134
lradius 40.3486
lwrist -12.3178
lhand -30.8766 60.7997
lfingers 7.12502
lthumb -4.16398 629.261
rfemur -17.4912 9.22186 12.7703
rtibia 12.1531
rfoot -7.10567 -10.3175
rtoes -27.1605
lfemur -26.3494 -4.12868 -10.6159
ltibia 27.3856
lfoot -16.7586 8.59462
ltoes -29.303
629
root -8.94004 17.651 -5.72231 -366.433 81.7793 -381.835
lowerback 11.9865 1.31684 -4.34002
upperback 3.11392 1.2563 -2.17897
thorax -3.49323 0.699263 -0.0169635
lowerneck -8.54366 4.42065 3.9251
upperneck 29.3063 8.63541 -6.9294
head 11.3885 3.84818 -2.09306
rclavicle 3.57812e-014 4.77083e-015
rhumerus -33.6128 38.1749 -97.2042
rradius 66.0334
rwrist -10.9452
rhand -40.156 19.625
rfingers 7.12502
rthumb -13.1182 -9.94237
lclavicle 3.57812e-014 4.77083e-015
lhumerus -4.63347 -31.3646 83.4059
lradius 40.019
lwrist -12.3661
lhand -31.1592 60.7327
lfingers 7.12502
lthumb -4.43691 629.334
rfemur -17.5092 9.18716 12.7303
rtibia 12.1085
rfoot -7.01173 -10.3309
rtoes -27.2143
lfemur -26.343 -4.35798 -10.6089
ltibia 27.2732
lfoot -16.7397 8.7642
ltoes -28.7874
630
root -8.9323 17.6541 -5.72366 -366.735 81.9944 -382.063
lowerback 12.0167 1.26504 -4.26608
upperback 3.15042 1.19847 -2.17112
thorax -3.46856 0.670279 -0.0416398
lowerneck -8.61607 4.41492 3.91208
upperneck 29.3413 8.55511 -6.69411
head 11.3981 3.83312 -2.01325
rclavicle -1.07344e-014 7.15625e-015
rhumerus -35.1127 38.257 -97.9389
rradius 68.4984
rwrist -12.7755
rhand -40.0763 18.403
rfingers 7.12502
rthumb -13.0413 -11.1693
lclavicle -1.07344e-014 7.15625e-015
lhumerus -4.5837 -31.2229 83.4602
lradius 39.7671
lwrist -12.5713
lhand -31.4767 60.8107
lfingers 7.12502
lthumb -4.7434 629.262
rfemur -17.2495 9.12918 12.7192
rtibia 11.9345
rfoot -6.92425 -10.475
rtoes -27.0572
lfemur -26.2454 -4.62414 -10.6249
ltibia 27.2041
lfoot -16.7545 8.83571
ltoes -28.9653
